# xmcd CD database file
#
# Track frame offsets:
#	150
#	22901
#	28682
#	48883
#	67502
#	90958
#	119186
#	141663
#	147382
#	173460
#	196326
#	220134
#	247429
#	267760
#
# Disc length: 3874 seconds
#
# Revision: 0
# Processed by: cddbd v1.5.2PL0 Copyright (c) Steve Scherf et al.
# Submitted via: CDex 1.70beta2
#
DISCID=c80f200e
DTITLE=Speaker Sgt. - Speaker Sgt.
DYEAR=2010
DGENRE=Jazz
TTITLE0=Black Cream
TTITLE1=Interlude 1
TTITLE2=Milestones
TTITLE3=One More
TTITLE4=Bird In A Bottle
TTITLE5=Affairs
TTITLE6=Camel On Diaz
TTITLE7=Interlude 2
TTITLE8=Maiden Voyage
TTITLE9=Limit
TTITLE10=Pink Hitter
TTITLE11=Low Power
TTITLE12=Eyes and Wise
TTITLE13=Scofield's Dance
EXTD=YEAR: 2010
EXTT0=
EXTT1=
EXTT2=
EXTT3=
EXTT4=
EXTT5=
EXTT6=
EXTT7=
EXTT8=
EXTT9=
EXTT10=
EXTT11=
EXTT12=
EXTT13=
PLAYORDER=
